HIERARCHY
ROOT hip
{
	OFFSET 0.000000 0.000000 0.000000 
	CHANNELS 6 Xposition Yposition Zposition Xrotation Zrotation Yrotation
	JOINT abdomen
	{
		OFFSET 0.000000 3.402643 0.000000 
		CHANNELS 3 Xrotation Zrotation Yrotation
		JOINT chest
		{
			OFFSET 0.000000 8.438565 -0.680529 
			CHANNELS 3 Xrotation Zrotation Yrotation
			JOINT neck
			{
				OFFSET 0.000000 10.207942 -0.272212 
				CHANNELS 3 Xrotation Zrotation Yrotation
				JOINT head
				{
					OFFSET 0.000000 3.130431 0.000000 
					CHANNELS 3 Xrotation Zrotation Yrotation
					End Site
					{
						OFFSET 0.000000 3.130435 0.000000 
					}
				}
			}
			JOINT lCollar
			{
				OFFSET 3.470700 6.669187 -0.816635 
				CHANNELS 3 Yrotation Zrotation Xrotation
				JOINT lShldr
				{
					OFFSET 3.198488 0.000000 0.000000 
					CHANNELS 3 Zrotation Yrotation Xrotation
					JOINT lForeArm
					{
						OFFSET 10.139888 0.000000 0.000000 
						CHANNELS 3 Yrotation Zrotation Xrotation
						JOINT lHand
						{
							OFFSET 8.370511 0.000000 0.000000 
							CHANNELS 3 Zrotation Yrotation Xrotation
							End Site
							{
								OFFSET 4.083176 0.000000 0.000000 
							}
						}
					}
				}
			}
			JOINT rCollar
			{
				OFFSET -3.470700 6.669187 -0.816635 
				CHANNELS 3 Yrotation Zrotation Xrotation
				JOINT rShldr
				{
					OFFSET -3.198488 0.000000 0.000000 
					CHANNELS 3 Zrotation Yrotation Xrotation
					JOINT rForeArm
					{
						OFFSET -10.139888 0.000000 0.000000 
						CHANNELS 3 Yrotation Zrotation Xrotation
						JOINT rHand
						{
							OFFSET -8.370511 0.000000 0.000000 
							CHANNELS 3 Zrotation Yrotation Xrotation
							End Site
							{
								OFFSET -4.083176 0.000000 0.000000 
							}
						}
					}
				}
			}
		}
	}
	JOINT lThigh
	{
		OFFSET 5.308129 -1.633274 1.361059 
		CHANNELS 3 Xrotation Zrotation Yrotation
		JOINT lShin
		{
			OFFSET -2.041588 -20.007561 0.000000 
			CHANNELS 3 Xrotation Zrotation Yrotation
			JOINT lFoot
			{
				OFFSET 0.000000 -19.190928 -1.224953 
				CHANNELS 3 Xrotation Yrotation Zrotation
				End Site
				{
					OFFSET 0.000000 -2.449906 4.627600 
				}
			}
		}
	}
	JOINT rThigh
	{
		OFFSET -5.308129 -1.633274 1.361059 
		CHANNELS 3 Xrotation Zrotation Yrotation
		JOINT rShin
		{
			OFFSET 2.041588 -20.007561 0.000000 
			CHANNELS 3 Xrotation Zrotation Yrotation
			JOINT rFoot
			{
				OFFSET 0.000000 -19.190928 -1.224953 
				CHANNELS 3 Xrotation Yrotation Zrotation
				End Site
				{
					OFFSET 0.000000 -2.449906 4.627600 
				}
			}
		}
	}
}
MOTION
Frames: 16
Frame Time: 0.016667
0.000000 34.420116 0.000000 -36.835941 -19.248045 153.750000 36.757813 -12.607422 -4.250332 -25.048828 4.667969 2.500795 51.064453 8.115234 2.472081 -98.212891 -0.693359 51.318241 7.607422 30.000000 0.571289 -83.398438 38.330078 -53.984375 -90.791016 0.292969 -2.695362 7.519532 24.697268 -5.308418 -6.865235 -30.000000 0.966797 83.886719 -40.966797 -47.910156 96.389801 -0.132730 -3.286230 -7.495232 -24.744837 -5.460222 -97.334679 37.076103 -3.250059 73.661736 -1.969858 -4.918862 -11.792666 -7.118167 -4.316421 -80.754570 -30.973963 2.475466 79.573128 0.869200 4.755485 -19.519970 -0.283517 13.551314 
0.251794 34.258286 0.502081 -36.748047 -19.707031 153.317017 38.085938 -12.939453 -4.472656 -25.937498 4.648438 2.783994 51.064453 8.115234 2.472081 -98.417969 -0.908203 51.064457 7.343750 30.000000 0.747070 -83.261719 38.183594 -53.847652 -90.615234 0.273438 -2.880906 66.279297 55.810547 37.314457 -7.382812 -30.000000 0.688478 84.550781 -41.191406 -49.527916 96.905296 -0.428308 -3.220722 -24.963333 -68.206085 13.518460 -98.461494 37.468357 -3.462301 73.981186 -1.579307 -4.817634 -11.715423 -6.552492 -4.329844 -82.002785 -29.791807 2.805441 80.592323 0.419898 4.610438 -20.298727 -1.201636 13.701940 
0.521457 34.054241 1.056125 -36.826172 -19.990234 152.984940 39.296875 -13.476563 -4.699542 -26.640623 4.638672 2.901180 51.064453 8.115234 2.472081 -98.603516 -1.005859 50.488110 7.705078 30.000000 0.444336 -83.291016 38.027344 -53.577972 -90.615234 0.087891 -2.841812 68.466797 55.312500 37.927952 -7.792969 -30.000000 0.283203 85.117188 -41.542969 -51.227184 96.895439 -0.447788 -3.034749 -24.449526 -67.676094 11.950401 -99.732780 38.211445 -4.628982 74.174164 -1.745068 -4.981962 -11.501822 -6.501796 -4.310000 -83.651917 -28.759871 3.265933 82.162567 0.118648 4.468152 -20.712803 -1.899181 13.300846 
0.749885 33.843147 1.598915 -36.962891 -20.419924 152.662613 40.126953 -13.193360 -4.279572 -27.175699 4.462583 2.881659 51.064453 8.115234 2.472081 -99.033203 -1.533203 50.624741 7.294922 30.000000 0.903321 -83.662109 37.773438 -53.265503 -90.263672 0.429688 -2.910156 70.058594 54.687500 37.664223 -8.037109 -30.000000 0.161134 84.726563 -41.386719 -52.399033 97.257324 -0.264185 -3.187134 -25.866076 -67.383591 12.566618 -100.961617 38.747868 -5.371114 74.168144 -1.647406 -5.093450 -10.964463 -6.282998 -4.411001 -85.127213 -27.402655 4.402318 83.617188 0.504445 4.609421 -20.985001 -3.288332 13.269423 
0.951371 33.660213 2.138449 -37.021488 -20.712893 152.314468 40.878906 -12.275390 -3.625123 -27.353512 3.945313 2.578797 51.064453 8.115234 2.472081 -99.345703 -2.314453 51.200779 7.294922 30.000000 0.903321 -84.794922 37.822269 -53.792839 -90.097656 0.068359 -2.822278 71.230469 54.121090 37.539063 -8.037109 -30.000000 0.161134 83.857422 -41.064453 -52.613838 97.422104 -0.450655 -3.028270 -25.277647 -66.968597 11.395710 -102.172997 39.168003 -6.170309 74.335510 -1.530468 -5.002548 -10.530713 -6.302854 -4.422115 -86.478928 -26.033861 4.640911 84.663811 0.410185 4.787155 -21.434504 -3.793875 13.025627 
1.176963 33.547634 2.680980 -37.099606 -20.996094 152.047272 41.601566 -11.269530 -2.814408 -27.509766 3.417969 2.471285 51.064453 8.115234 2.472081 -99.853516 -3.173828 51.737743 6.982421 29.990234 1.074219 -85.986328 37.753910 -53.769527 -89.736328 0.400391 -2.910156 71.748047 53.613281 37.488331 -8.027344 -30.000000 0.190332 83.007813 -40.820313 -52.574738 97.782852 -0.472271 -3.034200 -26.300770 -66.564842 11.816490 -102.970627 39.567162 -7.010963 74.034271 -1.726053 -4.783706 -9.689654 -6.530450 -4.599919 -87.629028 -24.637085 5.150823 85.524185 0.312436 4.706358 -21.426598 -4.815628 13.112606 
1.456248 33.589844 3.184146 -37.177734 -21.269529 151.715210 42.324219 -10.224608 -1.661890 -27.685547 2.890625 2.354008 51.064453 8.115234 2.472081 -100.537109 -3.867188 52.353519 6.816407 30.000000 0.991211 -87.158203 37.675781 -54.017471 -89.023438 0.263672 -2.978560 72.353516 52.333981 37.820229 -8.037109 -30.000000 0.161134 82.138672 -40.605469 -52.350105 97.967674 -0.551503 -3.149637 -26.348137 -66.464668 11.521038 -103.956329 39.967239 -7.588844 73.466698 -1.618318 -4.987937 -8.745427 -6.047400 -4.914226 -88.394035 -23.251247 5.325693 85.697617 0.312578 4.776729 -21.878643 -6.159709 13.540313 
1.745302 33.709461 3.696189 -37.304688 -21.689455 151.373337 43.056641 -9.111328 -0.665609 -27.861328 2.197266 2.089844 51.064453 8.115234 2.472081 -101.416016 -4.609375 52.958199 6.503906 30.000000 1.176758 -88.281250 37.753910 -54.300655 -88.847656 0.371094 -2.900450 72.236328 51.972656 37.363281 -7.978516 -30.000000 0.327150 82.246094 -40.322266 -52.968754 98.143524 -0.503750 -3.040040 -26.420834 -66.196136 11.488007 -104.309669 40.319595 -8.167773 72.763969 -1.667003 -4.957831 -8.480812 -5.875948 -4.772417 -88.911194 -21.659405 5.187132 85.626137 -0.419625 4.435939 -21.695715 -6.896390 14.263894 
2.029651 33.815006 4.206330 -37.392578 -21.972656 151.041260 43.759762 -7.939454 0.507813 -28.027344 1.494141 1.836192 51.064453 8.115234 2.472081 -102.519531 -5.380859 53.740231 6.191520 30.000000 1.362343 -89.453125 37.597652 -54.925678 -88.330078 0.185547 -2.851594 72.832039 51.894535 37.742062 -8.339844 -30.000000 0.073243 82.060547 -40.244141 -53.619595 98.505508 -0.330254 -3.192353 -26.543596 -66.358673 11.531410 -104.372375 40.536121 -8.552988 71.701897 -1.764632 -4.605170 -7.716616 -5.445966 -4.940030 -89.492157 -19.922152 5.775036 85.885559 0.293673 4.965508 -21.959715 -8.359783 14.150757 
2.314901 33.941662 4.700380 -37.480469 -22.236328 150.777557 44.501953 -6.767579 1.698068 -28.017580 0.791016 1.591797 51.064453 8.115234 2.472081 -103.593750 -6.005859 54.414066 5.664063 30.000000 1.635743 -90.615234 37.587891 -56.019432 -87.978516 -0.019531 -2.792965 73.906250 52.724609 38.181599 -8.427735 -30.000000 -0.039063 82.714844 -40.410156 -54.160160 98.845581 -0.527812 -3.041068 -25.626966 -66.310654 10.416728 -104.683472 40.701542 -8.898650 70.819328 -1.842459 -4.944989 -6.770609 -4.936252 -5.257429 -89.835983 -18.339436 6.133356 85.697899 0.371092 4.560225 -22.013935 -9.958807 14.610364 
2.572535 34.082382 5.163279 -37.392578 -22.558594 150.386887 45.273438 -5.644532 2.909195 -28.193361 0.107422 1.337890 51.064453 8.115234 2.472081 -104.511719 -6.660156 55.262547 5.009765 30.000000 2.148437 -91.777344 37.558594 -57.279202 -87.460938 -0.039063 -2.783196 75.273438 54.814453 38.797043 -8.632813 -30.000000 0.000000 82.841797 -40.156250 -54.967236 99.186913 -0.530148 -3.036258 -25.035925 -66.448395 9.825182 -104.734901 40.712421 -9.299295 69.949966 -1.929680 -4.925346 -6.271727 -4.244412 -5.463271 -90.398705 -16.796782 6.707387 85.384079 0.713139 4.629152 -21.816540 -10.889529 14.962156 
2.813694 34.166813 5.587742 -37.519531 -22.988281 150.045013 46.035156 -4.355469 4.120352 -28.369141 -0.595703 1.103518 51.064453 8.115234 2.472081 -104.873047 -7.216797 55.799557 4.755859 29.999998 2.275391 -92.714844 37.421871 -57.626949 -86.914063 0.292969 -2.880909 76.406250 56.181641 39.500301 -8.945313 -30.000000 -0.195313 82.802734 -40.234375 -55.517582 99.362320 -0.550915 -3.053588 -24.252832 -66.487976 8.470826 -104.597076 40.907249 -9.739259 68.894226 -2.018037 -4.909680 -5.783549 -3.715363 -5.969893 -90.886833 -15.204630 6.445895 85.345779 0.322415 4.778970 -22.153112 -12.028949 14.851871 
3.012459 34.237171 5.962979 -37.607422 -23.261719 149.712936 46.835938 -3.164063 5.517578 -28.369141 -1.289063 0.849612 51.064453 8.115234 2.472081 -104.863281 -7.792969 56.483051 4.990234 29.999998 2.177735 -94.121094 37.089844 -58.421844 -86.591797 -0.068359 -2.783203 77.753906 56.328125 39.628906 -9.218750 -30.000000 -0.336913 82.314453 -40.283203 -56.256313 99.537865 -0.552173 -3.061150 -24.541901 -66.857918 8.032287 -104.642265 41.081692 -9.947010 68.038185 -1.910405 -4.724373 -5.295572 -3.311167 -6.140715 -91.260422 -14.179256 7.203278 85.217918 0.830180 4.729065 -21.927177 -12.737761 15.006520 
3.182689 34.314571 6.267858 -37.539063 -23.593750 149.205078 47.656250 -1.943359 6.806310 -28.535154 -1.972656 0.614898 51.064453 8.115234 2.472081 -104.677734 -8.310547 57.010307 5.625000 29.990234 1.694337 -95.322266 36.728516 -58.021500 -86.210938 0.302735 -2.675835 78.613281 56.347656 39.589844 -9.570313 -30.000000 -0.664062 81.640625 -40.126953 -56.865231 99.713333 -0.563221 -3.058941 -25.574640 -67.097290 8.498799 -104.214859 41.141163 -10.269320 67.168663 -2.173894 -4.477753 -4.550848 -2.856706 -6.291871 -91.584068 -12.949067 7.087735 84.829193 0.332150 4.740411 -22.045317 -13.424511 15.548465 
3.298804 34.363831 6.491199 -37.675777 -24.013672 149.038986 48.681641 -0.771484 8.125000 -28.535156 -2.675781 0.370641 51.064453 8.115234 2.472081 -104.287109 -8.789063 57.548824 5.878906 29.990234 1.567385 -95.869141 36.347656 -57.861332 -86.044922 0.263672 -2.871139 78.964844 55.869141 39.267578 -10.019531 -30.000000 -0.820312 80.722656 -40.498047 -57.359859 99.888870 -0.564526 -3.056729 -26.791702 -67.407265 8.805661 -103.999557 41.306950 -9.953613 66.285118 -2.398439 -4.576408 -4.351607 -2.073798 -6.650327 -91.943047 -12.431493 7.123969 84.148178 0.566506 5.115383 -21.471067 -13.947103 15.430372 
3.313221 34.455296 6.623694 -37.587891 -24.335936 148.462769 49.570313 0.351563 9.482482 -28.720707 -3.378906 0.136719 51.064453 8.115234 2.472081 -103.838448 -9.180046 58.094624 6.142578 30.000000 1.445312 -96.542969 36.142582 -58.382912 -86.240234 -0.078125 -2.939453 78.701172 55.683594 39.121090 -10.019531 -30.000000 -0.820312 80.458984 -40.478516 -58.453606 100.053169 -0.761087 -2.741577 -26.425825 -67.894768 7.575210 -103.851974 41.462845 -10.213161 65.763168 -2.457240 -4.927040 -4.208065 -1.098040 -6.678441 -92.306305 -12.109464 7.518861 83.642540 0.987706 5.132194 -21.489410 -13.638308 15.447882 
